<svg xmlns="http://www.w3.org/2000/svg" data-name="Layer 1" viewBox="0 0 128 128" x="0px" y="0px">
  <title>global warming drought nature dry climate1</title>
  <g>
    <path d="M123.1094,109.3359l-8.4965-5.6643L111,95h11a2,2,0,0,0,0-4H103.2791a26.4592,26.4592,0,0,1-1.5721-4.6348A26.7862,26.7862,0,0,1,101,80.29v-.2216l7.7744-7.7745a1.9992,1.9992,0,0,0,0-2.8281l-4.24-4.24a1.9992,1.9992,0,0,0-2.8281,0l-.7061.706V53.0984l4.5626-2.9036,4.4442,2.5415a2,2,0,0,0,1.9864-3.4726l-2.6162-1.4961,1.6972-1.08a2,2,0,0,0-2.1484-3.375L101,48.3562V44a2,2,0,0,0-.6826-1.5049l-8-7A2,2,0,0,0,89,37V51.6514l-3.6982-3.17a2,2,0,0,0-2.6036,3.0372L89,56.92V68.9384l-4.8114-3.7011,1.455-2.0967a2.0006,2.0006,0,0,0-3.2872-2.2812l-1.343,1.9353L79.22,61.415a2,2,0,1,0-2.4394,3.17l12.22,9.4V80.29A26.6128,26.6128,0,0,1,86.7224,91H6a2,2,0,0,0,0,4H20.225l-4.6664,14H6a2,2,0,0,0,0,4h9.9815l7.4013,10.1768a2,2,0,0,0,3.2344-2.3536l-6.2559-8.6015,16.308-4.0772,10.567,6.503L43.3037,120.94a2,2,0,0,0,3.3926,2.1192l4.6291-7.4065,14.9881-5.29,10.1142,12.8721a2,2,0,0,0,3.1446-2.4708L70.7132,109.49l16.735-2.3907,11.4063,8.7742-.834,5.8438a2,2,0,0,0,1.6963,2.2627,2.0305,2.0305,0,0,0,.2861.02,2,2,0,0,0,1.9766-1.7168l.8913-6.2393,10.2621-8.5517,7.7577,5.1719a2,2,0,0,0,2.2188-3.3282ZM93,80.29V41.4072l4,3.5V70.76a2,2,0,0,0,3.4141,1.414l2.706-2.706,1.4121,1.4121-6.9463,6.9463A2,2,0,0,0,97,79.24v1.05a30.7783,30.7783,0,0,0,.8125,6.9873A29.94,29.94,0,0,0,98.95,91H91.0488A30.6138,30.6138,0,0,0,93,80.29Zm-6.32,22.878-18.3106,2.6162L64.775,95H90.7637Zm-66.63,5.0078L24.4417,95H42.1826l-6.3984,9.2422Zm19.7961-2.7725L47.0482,95h13.51l3.9227,11.7683-14.2464,5.0281Zm61.1043,7.0352L90.5263,104.42l4.71-9.42H106.667l3.92,9.4082Z"/>
    <path d="M28,40.4761A12.4761,12.4761,0,1,0,15.5234,28,12.49,12.49,0,0,0,28,40.4761Zm0-20.9522A8.4761,8.4761,0,1,1,19.5234,28,8.486,8.486,0,0,1,28,19.5239Z"/>
    <path d="M28,13.2383a2,2,0,0,0,2-2V6a2,2,0,0,0-4,0v5.2383A2,2,0,0,0,28,13.2383Z"/>
    <path d="M39.8525,18.1475a1.9952,1.9952,0,0,0,1.4141-.5855l3.7041-3.7036a2,2,0,0,0-2.8281-2.8291l-3.7041,3.7041a2,2,0,0,0,1.414,3.4141Z"/>
    <path d="M42.7617,28a2,2,0,0,0,2,2H50a2,2,0,0,0,0-4H44.7617A2,2,0,0,0,42.7617,28Z"/>
    <path d="M43.5566,45.5562a2,2,0,0,0,1.4141-3.4146L41.2666,38.438a2,2,0,0,0-2.8281,2.8286l3.7041,3.7041A1.9951,1.9951,0,0,0,43.5566,45.5562Z"/>
    <path d="M30,50V44.7617a2,2,0,1,0-4,0V50a2,2,0,0,0,4,0Z"/>
    <path d="M17.5615,38.4385a2,2,0,0,0-2.8281,0l-3.7041,3.7036a2,2,0,0,0,2.8281,2.8291l3.7041-3.7041A1.9992,1.9992,0,0,0,17.5615,38.4385Z"/>
    <path d="M6,30h5.2383a2,2,0,1,0,0-4H6a2,2,0,0,0,0,4Z"/>
    <path d="M14.7334,17.562a2,2,0,0,0,2.8281-2.8286l-3.7041-3.7041a2,2,0,0,0-2.8281,2.8291Z"/>
  </g>
</svg>
