<svg xmlns="http://www.w3.org/2000/svg" data-name="Layer 1" viewBox="0 0 128 128" x="0px" y="0px">
  <title>flood disaster house home insurance1</title>
  <g>
    <path d="M25,62.2422a1.9993,1.9993,0,0,0,2,0l5-2.8867V71.7a2,2,0,0,0,4,0V57.0459L64,40.88l28,16.166V71.7a2,2,0,0,0,4,0V59.3555l5,2.8867a2,2,0,0,0,3-1.7324V51.28a2,2,0,0,0-1-1.7324l-38-21.94a2.0042,2.0042,0,0,0-2,0L46,37.4233V32a2,2,0,0,0-2-2H34a2,2,0,0,0-2,2V45.5071l-7,4.0417A1.9971,1.9971,0,0,0,24,51.28v9.23A2,2,0,0,0,25,62.2422ZM36,43.1973V34h6v5.7329l-5.6,3.2335Zm-8,9.2373L64,31.6494l36,20.7852v4.6113L65,36.8379a1.9993,1.9993,0,0,0-2,0L28,57.0459Z"/>
    <path d="M86,75.02a2,2,0,0,0,2-2V64a2,2,0,0,0-2-2H70a2,2,0,0,0-2,2v8.65a2,2,0,0,0,4,0V66H84V73.02A2,2,0,0,0,86,75.02Z"/>
    <path d="M62,73.77a2,2,0,0,0,2-2V64a2,2,0,0,0-2-2H42a2,2,0,0,0-2,2v9.03a2,2,0,0,0,4,0V66H60V71.77A2,2,0,0,0,62,73.77Z"/>
    <path d="M5.9932,79.68a9.77,9.77,0,0,1,6.1718,2.0049A13.6731,13.6731,0,0,0,20.4932,84.32a13.6687,13.6687,0,0,0,8.3261-2.6357A9.7691,9.7691,0,0,1,34.99,79.68a9.7689,9.7689,0,0,1,6.1709,2.0049A13.6731,13.6731,0,0,0,49.4893,84.32a13.6656,13.6656,0,0,0,8.3252-2.6357,10.4946,10.4946,0,0,1,12.3388,0,14.4705,14.4705,0,0,0,16.6533,0,10.5052,10.5052,0,0,1,12.3457,0,14.4769,14.4769,0,0,0,16.6573,0,9.77,9.77,0,0,1,6.1718-2.0049,2,2,0,0,0,0-4,13.673,13.673,0,0,0-8.3281,2.6357,10.5036,10.5036,0,0,1-12.3447,0,14.4783,14.4783,0,0,0-16.6582,0,10.4976,10.4976,0,0,1-12.3408,0,14.4675,14.4675,0,0,0-16.6514,0,10.4976,10.4976,0,0,1-12.3408,0A13.67,13.67,0,0,0,34.99,75.68a13.67,13.67,0,0,0-8.3271,2.6357,9.768,9.768,0,0,1-6.17,2.0049,9.77,9.77,0,0,1-6.1719-2.0049A13.673,13.673,0,0,0,5.9932,75.68a2,2,0,0,0,0,4Z"/>
    <path d="M109.4824,90.32a2,2,0,0,0-2-2,9.7737,9.7737,0,0,1-6.1738-2.0049,14.4783,14.4783,0,0,0-16.6582,0A9.7689,9.7689,0,0,1,78.48,88.32a2,2,0,0,0,0,4,13.6692,13.6692,0,0,0,8.3271-2.6357,10.5052,10.5052,0,0,1,12.3457,0,13.68,13.68,0,0,0,8.33,2.6357A2,2,0,0,0,109.4824,90.32Z"/>
    <path d="M51.4893,90.32a2,2,0,0,0-2-2,9.77,9.77,0,0,1-6.1719-2.0049A13.67,13.67,0,0,0,34.99,83.68a13.67,13.67,0,0,0-8.3271,2.6357,9.768,9.768,0,0,1-6.17,2.0049,2,2,0,0,0,0,4,13.6687,13.6687,0,0,0,8.3261-2.6357A9.7691,9.7691,0,0,1,34.99,87.68a9.7689,9.7689,0,0,1,6.1709,2.0049A13.6731,13.6731,0,0,0,49.4893,92.32,2,2,0,0,0,51.4893,90.32Z"/>
    <path d="M121.9814,91.68a13.673,13.673,0,0,0-8.3281,2.6357,9.7689,9.7689,0,0,1-6.1709,2.0049,2,2,0,0,0,0,4,13.67,13.67,0,0,0,8.3272-2.6357,9.77,9.77,0,0,1,6.1718-2.0049,2,2,0,0,0,0-4Z"/>
    <path d="M78.48,96.32a9.7658,9.7658,0,0,1-6.17-2.0049,14.4675,14.4675,0,0,0-16.6514,0A9.763,9.763,0,0,1,49.4893,96.32a2,2,0,1,0,0,4,13.6656,13.6656,0,0,0,8.3252-2.6357,10.4946,10.4946,0,0,1,12.3388,0A13.6664,13.6664,0,0,0,78.48,100.32a2,2,0,0,0,0-4Z"/>
    <path d="M20.4932,96.32a9.77,9.77,0,0,1-6.1719-2.0049A13.673,13.673,0,0,0,5.9932,91.68a2,2,0,0,0,0,4,9.77,9.77,0,0,1,6.1718,2.0049,13.6731,13.6731,0,0,0,8.3282,2.6357,2,2,0,0,0,0-4Z"/>
  </g>
</svg>
