<svg xmlns="http://www.w3.org/2000/svg" data-name="Layer 1" viewBox="0 0 128 128" x="0px" y="0px" fill="white">
  <title>earth hot climate change global warming climate_11</title>
  <path d="M117.9375,54.6436A42.9613,42.9613,0,0,0,78.1318,14.1147q-1.5582-.1108-3.1089-.11c-.0131,0-.0261-.0008-.0393-.0007a42.8245,42.8245,0,0,0-21.0871,5.5244,2,2,0,0,0,1.9668,3.4834A38.7543,38.7543,0,0,1,73,18.0758v2.8724a2.9987,2.9987,0,0,1-3.0107,2.9483,6.9484,6.9484,0,0,0,.0625,13.8965h21.207a2.9484,2.9484,0,0,1,2.9492,3.039A3.08,3.08,0,0,1,91.0537,43.69H79.9482A7.008,7.008,0,0,0,73,50.66a2.9476,2.9476,0,0,1-2.9482,2.9262H59.4482a5.54,5.54,0,0,0-5.5341,5.5342,1.5246,1.5246,0,0,1-1.5352,1.5347H36.1766c-.0846-.9021-.1459-1.8091-.1678-2.7232a2,2,0,1,0-3.9981.0957A42.9512,42.9512,0,0,0,52.0635,93.376,1.9938,1.9938,0,0,1,53,95.06V117a7.0056,7.0056,0,0,0,7.0225,7.0015c.2187,0,.4394-.01.6591-.0308A7.1806,7.1806,0,0,0,67,116.78v-3.4575a7.0546,7.0546,0,0,0,3.6816.6484A7.1806,7.1806,0,0,0,77,106.78v-5.54a3.37,3.37,0,0,1,1.03-2.4072,2.8427,2.8427,0,0,1,2.0732-.8345A2.99,2.99,0,0,1,83,101a7.0084,7.0084,0,0,0,7.6816,6.9707A7.1806,7.1806,0,0,0,97,100.78V95.06a1.9584,1.9584,0,0,1,.8965-1.6582A43.1375,43.1375,0,0,0,117.9375,54.6436ZM95.7686,90.0146A5.9848,5.9848,0,0,0,93,95.06v5.72a3.1506,3.1506,0,0,1-2.6963,3.209A3.0092,3.0092,0,0,1,87,101a6.9887,6.9887,0,0,0-6.75-6.9985,6.79,6.79,0,0,0-4.998,1.9536A7.3912,7.3912,0,0,0,73,101.24v5.54a3.1506,3.1506,0,0,1-2.6963,3.209A3.0092,3.0092,0,0,1,67,107a2,2,0,0,0-4,0v9.78a3.1506,3.1506,0,0,1-2.6963,3.209A3.0092,3.0092,0,0,1,57,117V95.06a5.981,5.981,0,0,0-2.792-5.0611A38.9664,38.9664,0,0,1,36.7659,64.6553h15.613a5.5249,5.5249,0,0,0,5.5352-5.5347,1.5362,1.5362,0,0,1,1.5341-1.5342H70.0518A6.9489,6.9489,0,0,0,77,50.6958,2.998,2.998,0,0,1,79.9482,47.69H91.0537a7.1052,7.1052,0,0,0,7.1524-6.7447,6.9471,6.9471,0,0,0-6.9473-7.1518H70.0518a2.9483,2.9483,0,0,1-.0264-5.8965A7.0076,7.0076,0,0,0,77,20.9482V18.075c.2836.0141.5657.01.85.03a38.9566,38.9566,0,0,1,36.0938,36.7514c.0277.5208.0234,1.0384.03,1.5572H104.69a6.9467,6.9467,0,0,0-6.9483,6.9487,2.9515,2.9515,0,0,1-2.9482,2.9482H76.4141a6.9483,6.9483,0,1,0,0,13.8965H84.19a2.9483,2.9483,0,0,1,0,5.8965H61a2,2,0,0,0,0,4H84.19a6.9483,6.9483,0,1,0,0-13.8965H76.4141a2.9483,2.9483,0,1,1,0-5.8965H94.793a6.9563,6.9563,0,0,0,6.9482-6.9482,2.9475,2.9475,0,0,1,2.9483-2.9487h9.1459A39.1219,39.1219,0,0,1,95.7686,90.0146Z"/>
  <path d="M34,40.4761A12.4761,12.4761,0,1,0,21.5234,28,12.49,12.49,0,0,0,34,40.4761Zm0-20.9522A8.4761,8.4761,0,1,1,25.5234,28,8.486,8.486,0,0,1,34,19.5239Z"/>
  <path d="M34,13.2383a2,2,0,0,0,2-2V6a2,2,0,0,0-4,0v5.2383A2,2,0,0,0,34,13.2383Z"/>
  <path d="M45.8525,18.1475a1.9952,1.9952,0,0,0,1.4141-.5855l3.7041-3.7036a2,2,0,0,0-2.8281-2.8291l-3.7041,3.7041a2,2,0,0,0,1.414,3.4141Z"/>
  <path d="M48.7617,28a2,2,0,0,0,2,2H56a2,2,0,0,0,0-4H50.7617A2,2,0,0,0,48.7617,28Z"/>
  <path d="M44.4385,38.4385a1.9992,1.9992,0,0,0,0,2.8281l3.7041,3.7041a2,2,0,0,0,2.8281-2.8291L47.2666,38.438A2,2,0,0,0,44.4385,38.4385Z"/>
  <path d="M32,44.7617V50a2,2,0,0,0,4,0V44.7617a2,2,0,1,0-4,0Z"/>
  <path d="M23.5615,38.4385a2,2,0,0,0-2.8281,0l-3.7041,3.7036a2,2,0,0,0,2.8281,2.8291l3.7041-3.7041A1.9992,1.9992,0,0,0,23.5615,38.4385Z"/>
  <path d="M19.2383,28a2,2,0,0,0-2-2H12a2,2,0,0,0,0,4h5.2383A2,2,0,0,0,19.2383,28Z"/>
  <path d="M20.7334,17.562a2,2,0,0,0,2.8281-2.8286l-3.7041-3.7041a2,2,0,0,0-2.8281,2.8291Z"/>
</svg>
