<svg xmlns="http://www.w3.org/2000/svg" data-name="Layer 1" viewBox="0 0 128 128" x="0px" y="0px">
  <title>sea level climate change global warming sea level rise1</title>
  <g>
    <path d="M6,87a4.8355,4.8355,0,0,1,3.5566,1.54,8.8134,8.8134,0,0,0,12.2154,0,4.8776,4.8776,0,0,1,7.1147,0,8.8145,8.8145,0,0,0,12.2163,0,4.8777,4.8777,0,0,1,7.1148,0,8.8133,8.8133,0,0,0,12.2153,0,4.8754,4.8754,0,0,1,7.1128,0,8.8133,8.8133,0,0,0,12.2153,0,4.88,4.88,0,0,1,7.1172.0005,8.8177,8.8177,0,0,0,12.2183-.0005,4.8827,4.8827,0,0,1,7.12.0005,8.8225,8.8225,0,0,0,12.2217,0A4.8473,4.8473,0,0,1,122,87a2,2,0,0,0,0-4,8.69,8.69,0,0,0-6.1108,2.459,4.8874,4.8874,0,0,1-7.1241,0,8.8188,8.8188,0,0,0-12.2187,0,4.8806,4.8806,0,0,1-7.1182,0A8.817,8.817,0,0,0,77.21,85.46a4.8764,4.8764,0,0,1-7.1137,0,8.8122,8.8122,0,0,0-12.2144,0,4.8764,4.8764,0,0,1-7.1137,0,8.8146,8.8146,0,0,0-12.2164,0,4.8776,4.8776,0,0,1-7.1147,0,8.8145,8.8145,0,0,0-12.2163,0,4.8766,4.8766,0,0,1-7.1138,0A8.6843,8.6843,0,0,0,6,83a2,2,0,0,0,0,4Z"/>
    <path d="M122,93a8.69,8.69,0,0,0-6.1108,2.459A4.8475,4.8475,0,0,1,112.3271,97a2,2,0,0,0,0,4,8.6907,8.6907,0,0,0,6.1109-2.459A4.8473,4.8473,0,0,1,122,97a2,2,0,0,0,0-4Z"/>
    <path d="M94.9878,99a2,2,0,0,0-2-2,4.84,4.84,0,0,1-3.56-1.541A8.817,8.817,0,0,0,77.21,95.46,4.8369,4.8369,0,0,1,73.6528,97a2,2,0,0,0,0,4,8.6868,8.6868,0,0,0,6.1084-2.46,4.88,4.88,0,0,1,7.1172.0005A8.6886,8.6886,0,0,0,92.9878,101,2,2,0,0,0,94.9878,99Z"/>
    <path d="M56.3262,99a2,2,0,0,0-2-2,4.8369,4.8369,0,0,1-3.5576-1.54,8.8146,8.8146,0,0,0-12.2164,0A4.8366,4.8366,0,0,1,34.9951,97a2,2,0,0,0,0,4,8.6846,8.6846,0,0,0,6.1079-2.46,4.8777,4.8777,0,0,1,7.1148,0A8.687,8.687,0,0,0,54.3262,101,2,2,0,0,0,56.3262,99Z"/>
    <path d="M17.6641,99a2,2,0,0,0-2-2,4.8357,4.8357,0,0,1-3.5567-1.54A8.6843,8.6843,0,0,0,6,93a2,2,0,0,0,0,4,4.8355,4.8355,0,0,1,3.5566,1.54A8.6845,8.6845,0,0,0,15.6641,101,2,2,0,0,0,17.6641,99Z"/>
    <path d="M112.3271,107a4.8474,4.8474,0,0,1-3.562-1.541,8.8188,8.8188,0,0,0-12.2187,0A4.8385,4.8385,0,0,1,92.9878,107a2,2,0,0,0,0,4,8.6873,8.6873,0,0,0,6.1089-2.46,4.8827,4.8827,0,0,1,7.12.0005A8.6906,8.6906,0,0,0,112.3271,111a2,2,0,0,0,0-4Z"/>
    <path d="M73.6528,107a4.8352,4.8352,0,0,1-3.5561-1.54,8.8122,8.8122,0,0,0-12.2144,0A4.8352,4.8352,0,0,1,54.3262,107a2,2,0,0,0,0,4,8.6829,8.6829,0,0,0,6.1069-2.46,4.8754,4.8754,0,0,1,7.1128,0A8.6829,8.6829,0,0,0,73.6528,111a2,2,0,1,0,0-4Z"/>
    <path d="M34.9951,107a4.8369,4.8369,0,0,1-3.5576-1.54,8.8145,8.8145,0,0,0-12.2163,0A4.8366,4.8366,0,0,1,15.6641,107a2,2,0,0,0,0,4,8.6848,8.6848,0,0,0,6.1079-2.46,4.8776,4.8776,0,0,1,7.1147,0A8.687,8.687,0,0,0,34.9951,111a2,2,0,1,0,0-4Z"/>
    <path d="M6,81a2,2,0,0,0,2-2V20H20v4H15a2,2,0,0,0,0,4h5v4H18a2,2,0,0,0,0,4h2v4H15a2,2,0,0,0,0,4h5v4H18a2,2,0,0,0,0,4h2v4H15a2,2,0,0,0,0,4h5v4H18a2,2,0,0,0,0,4h2v4H15a2,2,0,0,0,0,4h5v3.42a2,2,0,0,0,4,0V18a2,2,0,0,0-2-2H6a2,2,0,0,0-2,2V79A2,2,0,0,0,6,81Z"/>
    <path d="M60.4141,44.4141,62,42.8284V54a2,2,0,0,0,4,0V42.8284l1.5859,1.5857a2,2,0,1,0,2.8282-2.8282l-5-5a2,2,0,0,0-2.8282,0l-5,5a2,2,0,0,0,2.8282,2.8282Z"/>
    <path d="M75.4141,60.4141,77,58.8284V70a2,2,0,0,0,4,0V58.8284l1.5859,1.5857a2,2,0,1,0,2.8282-2.8282l-5-5a2,2,0,0,0-2.8282,0l-5,5a2,2,0,0,0,2.8282,2.8282Z"/>
    <path d="M45.4141,61.4141,47,59.8284V71a2,2,0,0,0,4,0V59.8284l1.5859,1.5857a2,2,0,0,0,2.8282-2.8282l-5-5a2,2,0,0,0-2.8282,0l-5,5a2,2,0,0,0,2.8282,2.8282Z"/>
  </g>
</svg>
